<svg width="100" height="100" viewBox="0 0 100 100" fill="none" xmlns="http://www.w3.org/2000/svg">
<path d="M47.5 4.44337C49.047 3.55021 50.953 3.55021 52.5 4.44338L87.3372 24.5566C88.8842 25.4498 89.8372 27.1004 89.8372 28.8868V69.1132C89.8372 70.8996 88.8842 72.5502 87.3372 73.4434L52.5 93.5566C50.953 94.4498 49.047 94.4498 47.5 93.5566L12.6628 73.4434C11.1158 72.5502 10.1628 70.8996 10.1628 69.1132V28.8867C10.1628 27.1004 11.1158 25.4498 12.6628 24.5566L47.5 4.44337Z" fill="#0080FF"/>
<path d="M50.2 13L81.4 31V67L50.2 85L19 67V31L50.2 13Z" stroke="white" stroke-width="4.8" stroke-linecap="round" stroke-linejoin="round"/>
<path d="M50.2 31.4L67.8 41.4V56.6L50.2 66.6L32.6 56.6V41.4L50.2 31.4Z" stroke="white" stroke-width="4.8" stroke-linecap="round" stroke-linejoin="round"/>
<path d="M50.2 13V31.4" stroke="white" stroke-width="4.8" stroke-linecap="round" stroke-linejoin="round"/>
<path d="M81.4 31L67.8 41.4" stroke="white" stroke-width="4.8" stroke-linecap="round" stroke-linejoin="round"/>
<path d="M81.4 67L67.8 56.6" stroke="white" stroke-width="4.8" stroke-linecap="round" stroke-linejoin="round"/>
<path d="M50.2 85V66.6" stroke="white" stroke-width="4.8" stroke-linecap="round" stroke-linejoin="round"/>
<path d="M19 67L32.6 56.6" stroke="white" stroke-width="4.8" stroke-linecap="round" stroke-linejoin="round"/>
<path d="M19 31L32.6 41.4" stroke="white" stroke-width="4.8" stroke-linecap="round" stroke-linejoin="round"/>
</svg>
